<svg width="97" height="8" viewBox="0 0 97 8" fill="none" xmlns="http://www.w3.org/2000/svg">
	<path class="st0" d="M0,0.5h3.3c0.7,0,1.4,0.1,1.8,0.4c0.2,0.1,0.4,0.2,0.7,0.4C6.7,2,7.1,2.9,7.1,4c0,1.1-0.4,2-1.3,2.8
		C5.3,7.1,4.8,7.3,4.2,7.5c-0.3,0-0.6,0.1-0.9,0.1H0.1C0,7.5,0,7.5,0,7.3V6.2h3.2c0.5,0,0.9-0.1,1.2-0.2C5,5.7,5.3,5.3,5.5,4.7
		C5.6,4.5,5.7,4.2,5.7,4c0-0.6-0.3-1.2-0.9-1.7C4.5,2,4,1.9,3.4,1.9H0V0.5z M0,3.3h3.7v1.4H0V3.3z" fill="#C4C4C4"/>
	<path class="st0" d="M12.2,0.5h3.3v7.1H14V1.8l-1.3,0h-0.3c-0.7,0-1.1,0-1.2,0.1c-0.4,0.1-0.8,0.4-1.1,0.7C9.9,3.1,9.7,3.6,9.7,4
		c0,0.5,0.2,1.1,0.6,1.5c0.3,0.3,0.5,0.4,0.7,0.5c0.2,0.1,0.6,0.2,1.1,0.2h1v1.4H12c-0.9,0-1.6-0.2-2.2-0.7C9.3,6.5,9,6.2,8.9,5.9
		C8.5,5.3,8.3,4.7,8.3,4.1V3.9c0-0.8,0.3-1.6,1-2.3C9.7,1.2,10,1,10.2,0.9c0.2-0.1,0.4-0.2,0.7-0.3C11.2,0.5,11.6,0.5,12.2,0.5z" fill="#C4C4C4"/>
	<path class="st0" d="M20.2,0.5L20.2,0.5c1.1,0,2.1,0.4,2.8,1.3c0.5,0.7,0.7,1.4,0.7,2.2v0c0,1.1-0.5,2-1.4,2.8
		c-0.7,0.5-1.4,0.7-2.2,0.7h0c-1.1,0-2-0.4-2.8-1.3c-0.3-0.4-0.5-0.7-0.6-1c-0.1-0.4-0.2-0.8-0.2-1.1v0c0-1.1,0.4-2,1.3-2.7
		c0.6-0.4,1.1-0.7,1.6-0.7C19.7,0.5,19.9,0.5,20.2,0.5z M18.1,4c0,0.6,0.2,1.2,0.7,1.6c0.4,0.4,0.9,0.5,1.3,0.5h0.1
		c0.4,0,0.8-0.1,1.2-0.4c0.4-0.3,0.7-0.7,0.8-1.1c0-0.1,0.1-0.3,0.1-0.6c0-0.6-0.2-1.1-0.7-1.6c-0.4-0.4-0.9-0.6-1.4-0.6
		c-0.6,0-1.2,0.3-1.6,0.8c-0.2,0.3-0.3,0.5-0.4,0.7C18.1,3.5,18.1,3.8,18.1,4z" fill="#C4C4C4"/>
	<path class="st0" d="M32.1,0.5v1.4h-3.3c-0.6,0-1.1,0.1-1.5,0.4c-0.2,0.1-0.4,0.3-0.5,0.5c-0.3,0.4-0.4,0.8-0.4,1.2
		c0,0.4,0.1,0.8,0.4,1.3c0.2,0.3,0.6,0.6,1.1,0.8c0.2,0.1,0.5,0.1,0.8,0.1h3.3v1.3l-0.2,0h-3c-0.8,0-1.4-0.1-1.8-0.3
		c-0.9-0.4-1.5-1-1.8-1.8C25.1,5,25,4.5,25,4c0-0.8,0.3-1.6,0.8-2.2c0.3-0.3,0.6-0.6,0.8-0.7c0.5-0.3,0.9-0.4,1.3-0.5
		c0.1,0,0.7-0.1,1.6-0.1H32.1z" fill="#C4C4C4"/>
	<path class="st0" d="M33.3,0.5h1.4v2.8h3.4v1.4h-3.4v2.8h-1.4V0.5z M39,0.5h1.4v7H39V0.5z" fill="#C4C4C4"/>
	<path class="st0" d="M48,1.9c0.1,0.2,0.2,0.4,0.3,0.5c0.1,0.2,0.2,0.4,0.3,0.6c0.1,0.3,0.1,0.8,0.1,1.3v3.2h-1.4V4.2
		c0-1.1-0.5-1.9-1.5-2.2c-0.2-0.1-0.4-0.1-0.6-0.1c-0.2,0-0.4,0-0.6,0.1c-1,0.4-1.5,1.1-1.5,2.2v3.3h-1.4V4.3c0-0.6,0-1,0.1-1.3
		c0.1-0.3,0.2-0.5,0.3-0.6c0.1-0.1,0.2-0.3,0.3-0.5c0.8-0.9,1.7-1.4,2.8-1.4S47.3,0.9,48,1.9z" fill="#C4C4C4"/>
	<path class="st0" d="M56.2,0.5h4.7v1.4h-4.8c-0.4,0-0.6,0.2-0.7,0.6v0.1c0,0.2,0.1,0.4,0.4,0.5c0.1,0,0.2,0,0.2,0h2.4
		c0.6,0,1,0.1,1.3,0.2c0.5,0.2,0.9,0.6,1.1,1.1C61,4.8,61,5.1,61,5.4c0,0.7-0.3,1.3-1,1.8c-0.2,0.1-0.4,0.2-0.7,0.3
		c-0.2,0-0.5,0.1-0.9,0.1h-4.5l0-1.4h4.8c0.4,0,0.7-0.2,0.8-0.6l0-0.1c0-0.3-0.1-0.5-0.4-0.6c-0.1-0.1-0.2-0.1-0.4-0.1H56
		c-0.7,0-1.3-0.3-1.8-0.9c-0.2-0.3-0.3-0.7-0.3-1V2.5c0-0.7,0.4-1.3,1.1-1.7C55.3,0.6,55.7,0.5,56.2,0.5z" fill="#C4C4C4"/>
	<path class="st0" d="M62.3,0.5h7.1v1.4h-2.8v5.7h-1.4V1.8h-2.8V0.5z" fill="#C4C4C4"/>
	<path class="st0" d="M74.1,7.5c-1.1,0-2.1-0.5-2.8-1.4C71.1,5.9,71,5.8,71,5.6c-0.1-0.2-0.2-0.4-0.3-0.6c-0.1-0.3-0.1-0.8-0.1-1.3
		V0.5H72v3.3c0,1.1,0.5,1.9,1.5,2.2c0.2,0.1,0.4,0.1,0.6,0.1c0.2,0,0.4,0,0.6-0.1c1-0.4,1.5-1.1,1.5-2.2V0.5h1.4v3.2
		c0,0.6,0,1-0.1,1.3c-0.1,0.3-0.2,0.5-0.3,0.6c-0.1,0.1-0.2,0.3-0.3,0.5C76.2,7.1,75.3,7.5,74.1,7.5z" fill="#C4C4C4"/>
	<path class="st0" d="M81.4,0.5c0.9,0,1.5,0,1.6,0.1c0.4,0,0.8,0.2,1.3,0.5c0.3,0.2,0.5,0.4,0.8,0.7C85.7,2.4,86,3.2,86,4
		c0,0.5-0.1,1-0.3,1.4c-0.4,0.8-1,1.5-1.8,1.8c-0.4,0.2-1,0.3-1.8,0.3h-3l-0.2,0V6.2h3.3c0.4,0,0.6,0,0.8-0.1
		c0.5-0.2,0.9-0.4,1.1-0.8c0.3-0.4,0.4-0.9,0.4-1.3c0-0.4-0.1-0.8-0.4-1.2c-0.2-0.2-0.3-0.4-0.5-0.5c-0.3-0.3-0.8-0.4-1.5-0.4h-3.3
		V0.5H81.4z" fill="#C4C4C4"/>
	<path class="st0" d="M87.2,0.5h1.4v7h-1.4V0.5z" fill="#C4C4C4"/>
	<path class="st0" d="M93.4,0.5L93.4,0.5c1.1,0,2.1,0.4,2.8,1.3C96.8,2.5,97,3.2,97,4v0c0,1.1-0.5,2-1.4,2.8
		c-0.7,0.5-1.4,0.7-2.2,0.7h0c-1.1,0-2-0.4-2.8-1.3c-0.3-0.4-0.5-0.7-0.6-1C90,4.8,89.9,4.4,89.9,4v0c0-1.1,0.4-2,1.3-2.7
		c0.6-0.4,1.1-0.7,1.6-0.7C93,0.5,93.2,0.5,93.4,0.5z M91.3,4c0,0.6,0.2,1.2,0.7,1.6c0.4,0.4,0.9,0.5,1.3,0.5h0.1
		c0.4,0,0.8-0.1,1.2-0.4c0.4-0.3,0.7-0.7,0.8-1.1c0-0.1,0.1-0.3,0.1-0.6c0-0.6-0.2-1.1-0.7-1.6C94.5,2,94,1.8,93.5,1.8
		c-0.6,0-1.2,0.3-1.6,0.8c-0.2,0.3-0.3,0.5-0.4,0.7C91.4,3.5,91.3,3.8,91.3,4z" fill="#C4C4C4"/>
</svg>
