<svg width="28" height="28" viewBox="0 0 28 28" fill="none" xmlns="http://www.w3.org/2000/svg">
<style type="text/css">
	.st0{opacity:0.5;fill:#347DBF;enable-background:new    ;}
	.st1{opacity:0.66;fill:#FF58A6;enable-background:new    ;}
	.st2{opacity:0.56;fill:#FFFFFF;enable-background:new    ;}
	.st3{opacity:0.66;fill:#42A6FF;enable-background:new    ;}
	.st4{opacity:0.88;fill:#98D2FF;enable-background:new    ;}
</style>
<g>
	<path class="st0" d="M14,0L14,0c7.7,0,14,6.3,14,14l0,0c0,7.7-6.3,14-14,14l0,0C6.3,28,0,21.7,0,14l0,0C0,6.3,6.3,0,14,0z"/>
	<path class="st1" d="M19.1,16.9L19.1,16.9c2.2,1.3,5-0.3,5-2.9l0,0c0-2.6-2.8-4.2-5-2.9l0,0C16.9,12.4,16.9,15.6,19.1,16.9z"/>
	<path class="st2" d="M16.7,0.7L16.7,0.7C13.2-1.3,9,1.2,9,5.1v3l5.1-3V11l2.6-1.5C20.1,7.6,20.1,2.7,16.7,0.7z"/>
	<path class="st3" d="M9,14V8.1L6.4,9.6c-3.4,2-3.4,6.9,0,8.9L9,19.9V14l5.1,3V11L9,14z"/>
	<path class="st2" d="M16.7,18.4L14.1,17v5.9l-5.1-3v3c0,3.9,4.3,6.4,7.7,4.4l0,0C20.1,25.3,20.1,20.4,16.7,18.4z"/>
	<polygon class="st4" points="9,8.1 9,14 14.1,11 14.1,5.1 	"/>
	<polygon class="st4" points="14.1,17 9,14 9,19.9 14.1,22.9 	"/>
</g>
</svg>
