<svg id="图层_1" data-name="图层 1" xmlns="http://www.w3.org/2000/svg" viewBox="0 0 1024 1024"><defs><style>.cls-1,.cls-3,.cls-5,.cls-6{fill:#fff;}.cls-1{opacity:0.33;}.cls-2{fill:none;opacity:0.67;}.cls-3,.cls-4{opacity:0.5;}.cls-6{opacity:0.88;}</style></defs><rect class="cls-1" width="1024" height="1024" rx="512"/><line class="cls-2" x1="1024" y1="512" x2="886.85" y2="512"/><path class="cls-3" d="M699.08,617.72h0C780.47,664.71,882.2,606,882.2,512h0c0-94-101.73-152.71-183.12-105.72h0C617.69,453.26,617.69,570.74,699.08,617.72Z" transform="translate(0 0)"/><g class="cls-4"><path class="cls-5" d="M609.34,25.37h0c-124.87-72.09-281,18-281,162.21V295.72L515.69,187.58V403.86l93.65-54.07C734.21,277.7,734.21,97.47,609.34,25.37Z" transform="translate(0 0)"/><path class="cls-5" d="M328.38,512V295.72l-93.64,54.07c-124.87,72.09-124.87,252.33,0,324.42l93.64,54.07V512L515.69,620.14V403.86Z" transform="translate(0 0)"/><path class="cls-5" d="M609.34,674.21l-93.65-54.07V836.42L328.38,728.28V836.42c0,144.18,156.09,234.3,281,162.21h0C734.21,926.53,734.21,746.3,609.34,674.21Z" transform="translate(0 0)"/></g><polygon class="cls-6" points="328.38 295.73 328.38 512 515.69 403.86 515.69 187.58 328.38 295.73"/><polygon class="cls-6" points="515.69 620.14 328.38 512 328.38 728.27 515.69 836.42 515.69 620.14"/></svg>