<svg id="图层_1" data-name="图层 1" xmlns="http://www.w3.org/2000/svg" viewBox="0 0 1024 1024"><defs><style>.cls-1{fill:#364f6b;}.cls-2{fill:#a6fff2;}.cls-2,.cls-5{opacity:0.75;}.cls-3{fill:#f5f5f5;opacity:0.5;}.cls-4{fill:none;opacity:0.67;}.cls-5{fill:#fc5185;}</style></defs><rect class="cls-1" width="1024" height="1024" rx="512"/><path class="cls-2" d="M234.74,674.21l281,162.21V187.58l-281,162.21C109.87,421.88,109.87,602.12,234.74,674.21Z" transform="translate(0 0)"/><path class="cls-3" d="M609.34,25.37h0c-124.87-72.09-281,18-281,162.21V512l281-162.21C734.21,277.7,734.21,97.47,609.34,25.37Z" transform="translate(0 0)"/><path class="cls-3" d="M609.34,674.21,328.38,512V836.42c0,144.18,156.09,234.3,281,162.21h0C734.21,926.53,734.21,746.3,609.34,674.21Z" transform="translate(0 0)"/><line class="cls-4" x1="1024" y1="512" x2="886.85" y2="512"/><path class="cls-5" d="M699.08,617.72h0C780.47,664.71,882.2,606,882.2,512h0c0-94-101.73-152.71-183.12-105.72h0C617.69,453.26,617.69,570.74,699.08,617.72Z" transform="translate(0 0)"/></svg>