<svg width="178" height="29" viewBox="0 0 178 29" fill="none" xmlns="http://www.w3.org/2000/svg">
<style type="text/css">
	.st0{opacity:0.33;fill:#FFFFFF;enable-background:new    ;}
	.st1{opacity:0.5;fill:#FFFFFF;enable-background:new    ;}
	.st2{opacity:0.5;}
	.st3{fill:#FFFFFF;}
	.st4{opacity:0.88;fill:#FFFFFF;enable-background:new    ;}
	.st5{fill:#FF5A79;}
</style>
<g>
	<path class="st0" d="M14.5,0L14.5,0C22.5,0,29,6.5,29,14.5l0,0c0,8-6.5,14.5-14.5,14.5l0,0C6.5,29,0,22.5,0,14.5l0,0
		C0,6.5,6.5,0,14.5,0z"/>
	<path class="st1" d="M19.8,17.5L19.8,17.5c2.3,1.3,5.2-0.3,5.2-3l0,0c0-2.7-2.9-4.3-5.2-3l0,0C17.5,12.8,17.5,16.2,19.8,17.5z"/>
	<g class="st2">
		<path class="st3" d="M17.3,0.7L17.3,0.7c-3.5-2-8,0.5-8,4.6v3.1l5.3-3.1v6.1l2.7-1.5C20.8,7.9,20.8,2.8,17.3,0.7z"/>
		<path class="st3" d="M9.3,14.5V8.4L6.6,9.9c-3.5,2-3.5,7.1,0,9.2l2.7,1.5V14.5l5.3,3.1v-6.1L9.3,14.5z"/>
		<path class="st3" d="M17.3,19.1l-2.7-1.5v6.1l-5.3-3.1v3.1c0,4.1,4.4,6.6,8,4.6l0,0C20.8,26.2,20.8,21.1,17.3,19.1z"/>
	</g>
	<polygon class="st4" points="9.3,8.4 9.3,14.5 14.6,11.4 14.6,5.3 	"/>
	<polygon class="st4" points="14.6,17.6 9.3,14.5 9.3,20.6 14.6,23.7 	"/>
</g>
<g>
	<path class="st3" d="M53.3,16.4c-0.1,0.4-0.1,0.9-0.2,1.3c-0.4,0.1-0.8,0.1-1.1,0.2c-0.3,0-0.6,0-0.9,0c-0.5,0-1.1-0.1-1.6-0.2
		s-0.9-0.4-1.3-0.7s-0.7-0.7-0.9-1.2c-0.2-0.5-0.3-1-0.3-1.5c0-0.6,0.1-1.2,0.3-1.7s0.5-0.9,0.9-1.3c0.4-0.4,0.9-0.6,1.4-0.8
		c0.5-0.2,1.1-0.3,1.7-0.3c0.6,0,1.2,0.1,1.9,0.2c0,0.3,0,0.5,0,0.7l0,0.6c-0.4-0.1-0.7-0.2-1-0.2c-0.3,0-0.5-0.1-0.8-0.1
		c-0.4,0-0.8,0.1-1.1,0.2c-0.4,0.1-0.7,0.3-0.9,0.6c-0.3,0.3-0.5,0.6-0.6,0.9s-0.2,0.7-0.2,1.1c0,0.5,0.1,0.9,0.3,1.3
		c0.2,0.4,0.5,0.7,0.9,0.9c0.4,0.2,0.9,0.3,1.5,0.3C51.9,16.7,52.6,16.6,53.3,16.4z"/>
	<path class="st3" d="M54.4,17.7l0.2-2.6l0-1.5c0-0.3,0-0.6,0-0.9c0-0.1,0-0.2,0-0.5c0.3,0,0.6,0,0.7,0c0.2,0,0.4,0,0.7,0l0,0.8
		c0.1-0.2,0.3-0.3,0.4-0.4c0.1-0.1,0.2-0.2,0.3-0.2c0.1-0.1,0.3-0.1,0.4-0.2c0.1,0,0.3-0.1,0.5-0.1c0.1,0,0.3,0,0.4,0.1
		c0,0.3,0,0.8,0,1.3c-0.2-0.1-0.4-0.1-0.6-0.1c-0.2,0-0.4,0-0.6,0.1c-0.2,0.1-0.3,0.2-0.4,0.3c-0.1,0.1-0.2,0.3-0.3,0.5
		c-0.1,0.2-0.1,0.3-0.2,0.6c0,0.2-0.1,0.5-0.1,1c0,0.5,0,0.9,0,1.3c0,0.2,0,0.4,0,0.6c-0.3,0-0.5,0-0.8,0
		C55,17.7,54.7,17.7,54.4,17.7z"/>
	<path class="st3" d="M63.6,16.5c0,0.2-0.1,0.6-0.2,1.2c-0.4,0.1-0.7,0.1-1,0.2c-0.3,0-0.5,0-0.8,0c-0.5,0-0.9,0-1.3-0.1
		c-0.4-0.1-0.7-0.3-1-0.5c-0.3-0.3-0.5-0.6-0.6-0.9c-0.1-0.4-0.2-0.7-0.2-1.1c0-0.4,0.1-0.9,0.2-1.3c0.2-0.4,0.4-0.8,0.7-1
		s0.6-0.5,1-0.6c0.4-0.1,0.7-0.2,1.1-0.2c0.4,0,0.7,0,1.1,0.1c0.3,0.1,0.6,0.2,0.8,0.5c0.2,0.2,0.4,0.5,0.5,0.8
		c0.1,0.3,0.2,0.6,0.2,1c0,0.2,0,0.3-0.1,0.5l-4,0c0,0.1,0,0.2,0,0.3c0,0.2,0,0.5,0.1,0.7c0.1,0.2,0.2,0.4,0.4,0.5
		c0.2,0.1,0.3,0.2,0.6,0.3c0.2,0.1,0.4,0.1,0.7,0.1c0.2,0,0.5,0,0.8-0.1C62.9,16.7,63.2,16.6,63.6,16.5z M60.1,14.3l2.5,0
		c0-0.2,0-0.3,0-0.4c0-0.1,0-0.2-0.1-0.3s-0.1-0.2-0.2-0.3c-0.1-0.1-0.1-0.1-0.2-0.2c-0.1-0.1-0.2-0.1-0.3-0.1c-0.1,0-0.2,0-0.4,0
		c-0.2,0-0.3,0-0.4,0.1c-0.1,0-0.3,0.1-0.4,0.2c-0.1,0.1-0.2,0.2-0.3,0.3c-0.1,0.1-0.1,0.2-0.2,0.3S60.2,14.1,60.1,14.3z"/>
	<path class="st3" d="M65.3,13.4c0.1-0.3,0.1-0.4,0.1-0.5c0-0.1,0-0.3,0.1-0.5c0.5-0.1,0.9-0.2,1.3-0.2c0.4,0,0.7-0.1,1.1-0.1
		c0.4,0,0.8,0,1.1,0.1c0.3,0.1,0.6,0.2,0.8,0.4c0.2,0.2,0.3,0.5,0.3,0.9c0,0.2,0,0.7-0.1,1.6c-0.1,0.8-0.1,1.7-0.1,2.6
		c-0.3,0-0.5,0-0.8,0c-0.2,0-0.5,0-0.8,0c0-0.4,0.1-0.9,0.1-1.5l0.1-1.4c-0.1,0.1-0.2,0.2-0.3,0.2c-0.1,0-0.2,0.1-0.2,0.1
		c-0.1,0-0.2,0.1-0.5,0.1s-0.4,0.1-0.5,0.2c-0.1,0-0.3,0.1-0.4,0.2c-0.1,0.1-0.2,0.1-0.3,0.2c-0.1,0.1-0.1,0.2-0.2,0.2
		c0,0.1-0.1,0.2-0.1,0.3c0,0.2,0,0.3,0.1,0.4c0.1,0.1,0.2,0.2,0.3,0.2c0.1,0,0.3,0.1,0.5,0.1c0.1,0,0.2,0,0.4,0
		c0.1,0,0.3-0.1,0.5-0.1c-0.1,0.2-0.2,0.5-0.3,0.9c-0.3,0-0.5,0.1-0.6,0.1s-0.3,0-0.4,0c-0.5,0-0.8-0.1-1.1-0.2
		c-0.3-0.1-0.5-0.3-0.6-0.6c-0.1-0.3-0.2-0.5-0.2-0.8c0-0.2,0-0.3,0.1-0.5c0.1-0.2,0.1-0.3,0.2-0.4s0.2-0.2,0.4-0.4s0.4-0.2,0.7-0.3
		c0.3-0.1,0.7-0.2,1.2-0.3c0.1,0,0.3-0.1,0.4-0.1c0.1,0,0.3-0.1,0.4-0.1c0.1,0,0.2-0.1,0.2-0.2c0.1-0.1,0.1-0.1,0.1-0.2s0-0.1,0-0.2
		c0-0.1,0-0.3-0.1-0.4S68.2,13,68,13S67.7,13,67.5,13C66.9,13,66.1,13.1,65.3,13.4z"/>
	<path class="st3" d="M74.6,16.6c0,0.2-0.1,0.6-0.2,1.1c-0.3,0.1-0.5,0.1-0.7,0.1c-0.2,0-0.3,0-0.5,0c-0.3,0-0.5,0-0.7-0.1
		c-0.2-0.1-0.4-0.1-0.5-0.3c-0.1-0.1-0.2-0.3-0.3-0.5c0-0.2-0.1-0.4-0.1-0.5c0,0,0-0.1,0-0.2c0-0.1,0-0.3,0-0.8l0.1-2.3H71
		c0-0.2,0-0.6,0-1h0.8c0-0.2,0-0.6,0.1-1.1l0.6-0.1c0.1,0,0.4-0.1,0.8-0.2c0,0.5,0,0.9,0,1.4h1.4c0,0.5,0,0.8,0,1h-1.4
		c-0.1,1.5-0.1,2.3-0.1,2.6c0,0.2,0,0.4,0.1,0.5s0.1,0.2,0.2,0.3c0.1,0.1,0.2,0.1,0.3,0.1c0.1,0,0.2,0,0.3,0
		C74.2,16.7,74.4,16.7,74.6,16.6z"/>
	<path class="st3" d="M80.3,16.5c0,0.2-0.1,0.6-0.2,1.2c-0.4,0.1-0.7,0.1-1,0.2c-0.3,0-0.5,0-0.8,0c-0.5,0-0.9,0-1.3-0.1
		c-0.4-0.1-0.7-0.3-1-0.5c-0.3-0.3-0.5-0.6-0.6-0.9c-0.1-0.4-0.2-0.7-0.2-1.1c0-0.4,0.1-0.9,0.2-1.3c0.2-0.4,0.4-0.8,0.7-1
		s0.6-0.5,1-0.6c0.4-0.1,0.7-0.2,1.1-0.2c0.4,0,0.7,0,1.1,0.1c0.3,0.1,0.6,0.2,0.8,0.5c0.2,0.2,0.4,0.5,0.5,0.8
		c0.1,0.3,0.2,0.6,0.2,1c0,0.2,0,0.3-0.1,0.5l-4,0c0,0.1,0,0.2,0,0.3c0,0.2,0,0.5,0.1,0.7c0.1,0.2,0.2,0.4,0.4,0.5
		c0.2,0.1,0.3,0.2,0.6,0.3c0.2,0.1,0.4,0.1,0.7,0.1c0.2,0,0.5,0,0.8-0.1C79.5,16.7,79.9,16.6,80.3,16.5z M76.8,14.3l2.5,0
		c0-0.2,0-0.3,0-0.4c0-0.1,0-0.2-0.1-0.3s-0.1-0.2-0.2-0.3c-0.1-0.1-0.1-0.1-0.2-0.2c-0.1-0.1-0.2-0.1-0.3-0.1c-0.1,0-0.2,0-0.4,0
		c-0.2,0-0.3,0-0.4,0.1c-0.1,0-0.3,0.1-0.4,0.2c-0.1,0.1-0.2,0.2-0.3,0.3c-0.1,0.1-0.1,0.2-0.2,0.3S76.8,14.1,76.8,14.3z"/>
	<path class="st3" d="M89.7,14.1c0.3,0,0.5,0,0.7,0s0.4,0,0.7,0c0,0.8-0.2,1.6-0.6,2.3c0.2,0.3,0.5,0.5,0.7,0.7s0.4,0.4,0.6,0.6
		c-0.4,0-0.7,0-0.9,0c-0.3,0-0.6,0-0.9,0l-0.6-0.6c-0.1,0.1-0.3,0.2-0.4,0.3c-0.1,0.1-0.2,0.1-0.4,0.2c-0.1,0.1-0.3,0.1-0.5,0.2
		s-0.3,0.1-0.5,0.1c-0.2,0-0.4,0-0.6,0c-0.5,0-1-0.1-1.4-0.3c-0.4-0.2-0.8-0.4-1-0.8c-0.2-0.3-0.3-0.7-0.3-1.1
		c0-0.3,0.1-0.6,0.2-0.8c0.1-0.3,0.3-0.5,0.5-0.7c0.3-0.2,0.7-0.5,1.2-0.8c-0.2-0.3-0.3-0.5-0.4-0.8c-0.1-0.2-0.1-0.4-0.1-0.6
		c0-0.2,0.1-0.5,0.2-0.7c0.1-0.2,0.3-0.4,0.5-0.6c0.2-0.2,0.5-0.3,0.7-0.3c0.3-0.1,0.5-0.1,0.8-0.1c0.5,0,1,0.1,1.6,0.2l0,1.2
		c-0.2-0.1-0.5-0.2-0.6-0.2c-0.2,0-0.3-0.1-0.5-0.1c-0.2,0-0.4,0-0.6,0.1c-0.2,0.1-0.3,0.2-0.4,0.3c-0.1,0.1-0.1,0.3-0.1,0.5
		c0,0.1,0,0.2,0,0.3s0.1,0.2,0.1,0.3c0.1,0.2,0.2,0.4,0.4,0.6c0.2,0.3,0.4,0.6,0.7,0.8c0.1,0.1,0.2,0.3,0.6,0.6
		c0.2,0.2,0.3,0.3,0.4,0.5c0.1-0.1,0.1-0.2,0.1-0.3c0-0.1,0-0.2,0.1-0.4C89.7,14.5,89.7,14.3,89.7,14.1z M88.6,16.2l-0.7-0.8
		c-0.2-0.2-0.4-0.4-0.5-0.6c-0.1-0.2-0.3-0.3-0.5-0.6c-0.2,0.2-0.4,0.3-0.6,0.4c-0.1,0.1-0.2,0.2-0.3,0.3s-0.1,0.2-0.2,0.3
		c0,0.1,0,0.2,0,0.3c0,0.2,0.1,0.4,0.2,0.6c0.1,0.2,0.3,0.3,0.5,0.4c0.2,0.1,0.5,0.1,0.7,0.1c0.2,0,0.3,0,0.4,0
		c0.1,0,0.3-0.1,0.4-0.1s0.2-0.1,0.3-0.2S88.5,16.3,88.6,16.2z"/>
	<path class="st3" d="M95.3,17.7l0.1-1.9l0.1-2.4l0.1-2.3c0-0.1,0-0.4,0-0.8c0.4,0,0.8,0,1.1,0c0.3,0,0.6,0,1,0c0.4,0,0.8,0,1.1,0
		c0.4,0,0.8,0,1.2,0.1c0.4,0.1,0.7,0.1,1,0.3c0.3,0.1,0.5,0.3,0.7,0.5c0.2,0.2,0.4,0.4,0.5,0.7c0.1,0.3,0.2,0.5,0.3,0.9
		c0.1,0.3,0.1,0.6,0.1,1c0,0.6-0.1,1.2-0.3,1.8c-0.2,0.6-0.5,1-1,1.4c-0.4,0.4-0.9,0.6-1.4,0.7c-0.5,0.1-1.1,0.2-1.8,0.2l-1.8,0
		C96.2,17.7,95.9,17.7,95.3,17.7z M97,16.6c0.3,0,0.6,0,0.9,0c0.3,0,0.6,0,0.9,0s0.5-0.1,0.7-0.2c0.2-0.1,0.4-0.2,0.6-0.4
		c0.2-0.2,0.4-0.4,0.5-0.6c0.1-0.2,0.2-0.5,0.3-0.8c0.1-0.3,0.1-0.6,0.1-0.9c0-0.5-0.1-1-0.3-1.3c-0.2-0.3-0.4-0.6-0.7-0.8
		c-0.3-0.2-0.8-0.2-1.4-0.2c-0.4,0-0.9,0-1.4,0L97,16.6z"/>
	<path class="st3" d="M108.5,16.5c0,0.2-0.1,0.6-0.2,1.2c-0.4,0.1-0.7,0.1-1,0.2c-0.3,0-0.5,0-0.8,0c-0.5,0-0.9,0-1.3-0.1
		c-0.4-0.1-0.7-0.3-1-0.5s-0.5-0.6-0.6-0.9c-0.1-0.4-0.2-0.7-0.2-1.1c0-0.4,0.1-0.9,0.2-1.3c0.2-0.4,0.4-0.8,0.7-1s0.6-0.5,1-0.6
		c0.4-0.1,0.7-0.2,1.1-0.2c0.4,0,0.7,0,1.1,0.1c0.3,0.1,0.6,0.2,0.8,0.5c0.2,0.2,0.4,0.5,0.5,0.8s0.2,0.6,0.2,1c0,0.2,0,0.3-0.1,0.5
		l-4,0c0,0.1,0,0.2,0,0.3c0,0.2,0,0.5,0.1,0.7c0.1,0.2,0.2,0.4,0.4,0.5c0.2,0.1,0.3,0.2,0.6,0.3c0.2,0.1,0.4,0.1,0.7,0.1
		c0.2,0,0.5,0,0.8-0.1C107.8,16.7,108.1,16.6,108.5,16.5z M105,14.3l2.5,0c0-0.2,0-0.3,0-0.4c0-0.1,0-0.2-0.1-0.3s-0.1-0.2-0.2-0.3
		c-0.1-0.1-0.1-0.1-0.2-0.2s-0.2-0.1-0.3-0.1c-0.1,0-0.2,0-0.4,0c-0.2,0-0.3,0-0.4,0.1c-0.1,0-0.3,0.1-0.4,0.2
		c-0.1,0.1-0.2,0.2-0.3,0.3c-0.1,0.1-0.1,0.2-0.2,0.3S105.1,14.1,105,14.3z"/>
	<path class="st3" d="M109.7,17.6l-0.1-1.2c0.4,0.1,0.7,0.2,0.9,0.3c0.2,0.1,0.5,0.1,0.7,0.1s0.4,0,0.5-0.1c0.1,0,0.2-0.1,0.3-0.2
		c0.1-0.1,0.1-0.2,0.1-0.3c0,0,0-0.1,0-0.1s0-0.1,0-0.1c0,0-0.1-0.1-0.1-0.1c0,0-0.1-0.1-0.1-0.1c-0.1,0-0.1-0.1-0.2-0.2l-0.3-0.2
		c-0.3-0.2-0.5-0.4-0.6-0.5c-0.1-0.1-0.3-0.3-0.4-0.4s-0.2-0.3-0.2-0.4c-0.1-0.1-0.1-0.3-0.1-0.4c0-0.3,0.1-0.5,0.2-0.8
		c0.2-0.2,0.4-0.4,0.7-0.5s0.7-0.2,1.1-0.2c0.5,0,1,0.1,1.6,0.2l0.1,1.1c-0.4-0.2-0.8-0.3-1.2-0.3c-0.2,0-0.4,0-0.6,0.1
		c-0.2,0-0.3,0.1-0.3,0.2c-0.1,0.1-0.1,0.2-0.1,0.3c0,0.1,0,0.1,0,0.2c0,0.1,0.1,0.1,0.1,0.2c0.1,0.1,0.1,0.1,0.2,0.2
		s0.2,0.2,0.4,0.3c0.2,0.2,0.4,0.3,0.6,0.5c0.2,0.1,0.3,0.3,0.4,0.4s0.2,0.3,0.2,0.4s0.1,0.3,0.1,0.5c0,0.3-0.1,0.5-0.2,0.8
		c-0.2,0.2-0.4,0.4-0.8,0.5c-0.3,0.1-0.7,0.2-1.1,0.2c-0.2,0-0.5,0-0.8-0.1C110.4,17.8,110,17.7,109.7,17.6z"/>
	<path class="st3" d="M114.7,17.7c0.1-0.5,0.1-1,0.1-1.4c0-0.6,0.1-1.2,0.1-2c0-0.8,0-1.5,0.1-2.2c0.4,0,0.6,0,0.8,0
		c0.2,0,0.4,0,0.8,0c0,0.6-0.1,1.2-0.1,1.8s-0.1,1.2-0.1,2c0,0.7,0,1.3,0,1.8c-0.3,0-0.6,0-0.8,0C115.4,17.7,115.1,17.7,114.7,17.7z
		 M115,11.3c0-0.4,0-0.7,0-0.9v-0.2c0.3,0,0.6,0,0.8,0c0.3,0,0.5,0,0.8,0c0,0.1,0,0.2,0,0.3l0,0.7c-0.3,0-0.5,0-0.8,0
		S115.3,11.3,115,11.3z"/>
	<path class="st3" d="M118.1,18.9c0.8,0.3,1.5,0.4,2.1,0.4c0.2,0,0.4,0,0.6-0.1c0.2-0.1,0.4-0.1,0.5-0.2s0.2-0.3,0.3-0.4
		c0.1-0.2,0.1-0.4,0.2-0.6s0-0.6,0.1-1.1c-0.1,0.2-0.3,0.3-0.4,0.4c-0.1,0.1-0.2,0.2-0.4,0.3s-0.3,0.2-0.6,0.2
		c-0.2,0.1-0.4,0.1-0.7,0.1c-0.3,0-0.6,0-0.9-0.1c-0.3-0.1-0.5-0.3-0.8-0.5c-0.2-0.2-0.4-0.5-0.5-0.8c-0.1-0.3-0.2-0.7-0.2-1
		c0-0.5,0.1-1,0.3-1.4c0.2-0.4,0.5-0.8,0.8-1.1s0.8-0.5,1.2-0.6c0.4-0.1,0.9-0.2,1.4-0.2c0.3,0,0.6,0,1,0.1c0.4,0,0.8,0.1,1.4,0.2
		l-0.1,1.7l-0.1,2.2l0,1.9c0,0.2,0,0.4-0.1,0.6c0,0.2-0.1,0.4-0.2,0.6c-0.1,0.2-0.2,0.3-0.4,0.4c-0.1,0.1-0.3,0.2-0.5,0.3
		c-0.2,0.1-0.4,0.1-0.7,0.2c-0.3,0.1-0.6,0.1-0.9,0.1c-0.3,0-0.7,0-1.1-0.1c-0.4,0-0.9-0.1-1.4-0.2L118.1,18.9z M122,13.3
		c-0.3-0.1-0.6-0.1-0.9-0.1c-0.5,0-0.9,0.1-1.2,0.3s-0.5,0.4-0.7,0.8c-0.2,0.3-0.2,0.7-0.2,1c0,0.3,0.1,0.5,0.2,0.8
		c0.1,0.2,0.3,0.4,0.5,0.5c0.2,0.1,0.5,0.2,0.7,0.2c0.2,0,0.4,0,0.5-0.1c0.2-0.1,0.3-0.1,0.4-0.3c0.1-0.1,0.2-0.3,0.3-0.4
		c0.1-0.2,0.2-0.4,0.2-0.6c0-0.2,0.1-0.5,0.1-0.8C122,14.2,122,13.8,122,13.3z"/>
	<path class="st3" d="M124.6,17.7c0.1-0.8,0.2-1.7,0.2-2.8c0.1-1,0.1-1.9,0.1-2.8c0.3,0,0.6,0,0.8,0c0.2,0,0.5,0,0.8,0l-0.1,0.9
		c0.1-0.2,0.2-0.3,0.3-0.4s0.2-0.2,0.3-0.3c0.1-0.1,0.3-0.2,0.4-0.2c0.1-0.1,0.3-0.1,0.5-0.1c0.2,0,0.4,0,0.6,0c0.3,0,0.6,0,0.9,0.1
		c0.3,0.1,0.5,0.2,0.7,0.4c0.2,0.2,0.3,0.4,0.4,0.6s0.1,0.4,0.1,0.7c0,0.1,0,0.3,0,0.5l-0.1,2.4c0,0.3,0,0.7,0,1.1
		c-0.3,0-0.5,0-0.7,0c-0.3,0-0.6,0-0.8,0c0-0.3,0.1-0.9,0.1-1.6c0-0.8,0.1-1.3,0.1-1.6c0-0.3,0-0.5-0.1-0.7
		c-0.1-0.2-0.2-0.3-0.4-0.4c-0.2-0.1-0.4-0.1-0.6-0.1c-0.2,0-0.4,0-0.6,0.1c-0.2,0.1-0.4,0.2-0.5,0.4c-0.1,0.2-0.3,0.4-0.3,0.6
		c-0.1,0.3-0.1,0.7-0.2,1.3c0,0.5-0.1,1.2-0.1,2.1c-0.3,0-0.5,0-0.8,0C125.2,17.7,125,17.7,124.6,17.7z"/>
	<path class="st3" d="M136,17.7l-0.6-1.9l-0.9-2.6l-0.3-0.9c0.3,0,0.5,0,0.8,0c0.2,0,0.5,0,0.7,0l1.3,4.1l1.4-4.1c0.3,0,0.5,0,0.8,0
		c0.3,0,0.5,0,0.7,0l0.9,3.6c0,0.1,0,0.2,0.1,0.5l0.1-0.4c0,0,0-0.1,0.1-0.3l0.8-2.1l0.5-1.3c0.3,0,0.5,0,0.7,0c0.2,0,0.4,0,0.7,0
		l-1.5,3.4c-0.3,0.7-0.6,1.4-0.9,2.1c-0.3,0-0.5,0-0.7,0c-0.2,0-0.5,0-0.8,0l-1-3.9c-0.1,0.1-0.2,0.4-0.3,0.9l-1.1,3
		c-0.3,0-0.5,0-0.7,0C136.6,17.7,136.4,17.7,136,17.7z"/>
	<path class="st3" d="M144.2,17.7c0.1-0.5,0.1-1,0.1-1.4c0-0.6,0.1-1.2,0.1-2c0-0.8,0-1.5,0.1-2.2c0.4,0,0.6,0,0.8,0
		c0.2,0,0.4,0,0.8,0c0,0.6-0.1,1.2-0.1,1.8s-0.1,1.2-0.1,2c0,0.7,0,1.3,0,1.8c-0.3,0-0.6,0-0.8,0C144.9,17.7,144.6,17.7,144.2,17.7z
		 M144.5,11.3c0-0.4,0-0.7,0-0.9v-0.2c0.3,0,0.6,0,0.8,0c0.3,0,0.5,0,0.8,0c0,0.1,0,0.2,0,0.3l0,0.7c-0.3,0-0.5,0-0.8,0
		S144.8,11.3,144.5,11.3z"/>
	<path class="st3" d="M150.6,16.6c0,0.2-0.1,0.6-0.2,1.1c-0.3,0.1-0.5,0.1-0.7,0.1c-0.2,0-0.3,0-0.5,0c-0.3,0-0.5,0-0.7-0.1
		c-0.2-0.1-0.4-0.1-0.5-0.3c-0.1-0.1-0.2-0.3-0.3-0.5c0-0.2-0.1-0.4-0.1-0.5c0,0,0-0.1,0-0.2s0-0.3,0-0.8l0.1-2.3H147
		c0-0.2,0-0.6,0-1h0.8c0-0.2,0-0.6,0.1-1.1l0.6-0.1c0.1,0,0.4-0.1,0.8-0.2c0,0.5,0,0.9,0,1.4h1.4c0,0.5,0,0.8,0,1h-1.4
		c-0.1,1.5-0.1,2.3-0.1,2.6c0,0.2,0,0.4,0.1,0.5s0.1,0.2,0.2,0.3c0.1,0.1,0.2,0.1,0.3,0.1c0.1,0,0.2,0,0.3,0
		C150.1,16.7,150.3,16.7,150.6,16.6z"/>
	<path class="st3" d="M151.3,17.7l0.1-1.8l0.1-2.5l0.1-3.1c0.3,0,0.6,0,0.8,0c0.3,0,0.5,0,0.8,0l-0.1,1.3c0,0.3-0.1,0.8-0.1,1.5
		c0.1-0.2,0.2-0.3,0.3-0.4c0.1-0.1,0.2-0.2,0.3-0.2c0.1-0.1,0.2-0.1,0.3-0.2c0.1-0.1,0.2-0.1,0.4-0.1c0.1,0,0.3-0.1,0.5-0.1
		c0.2,0,0.3,0,0.5,0c0.3,0,0.6,0,0.9,0.1c0.3,0.1,0.5,0.2,0.7,0.3c0.2,0.2,0.3,0.4,0.4,0.6c0.1,0.2,0.1,0.4,0.1,0.7
		c0,0.2,0,0.4,0,0.7l-0.1,2.4c0,0.2,0,0.5,0,0.9c-0.3,0-0.6,0-0.8,0c-0.2,0-0.5,0-0.8,0c0.1-0.4,0.1-1,0.1-1.7
		c0-0.7,0.1-1.3,0.1-1.6c0-0.3,0-0.5-0.1-0.7c-0.1-0.2-0.2-0.3-0.4-0.4c-0.2-0.1-0.4-0.1-0.6-0.1c-0.3,0-0.5,0-0.7,0.1
		c-0.2,0.1-0.4,0.2-0.5,0.4c-0.1,0.2-0.2,0.4-0.3,0.7c-0.1,0.3-0.1,0.8-0.2,1.4c0,0.3,0,0.9-0.1,1.8c-0.3,0-0.5,0-0.7,0
		C151.9,17.7,151.7,17.7,151.3,17.7z"/>
	<g>
		<g>
			<g>
				<path class="st5" d="M165.6,13.9c0.2-1.4-2-3.6-3.9-1.8c-2.1,2,1.2,6.4,1.4,7c0.5-0.1,6-0.3,6.2-3.2
					C169.6,13.2,166.4,12.9,165.6,13.9z"/>
				<path class="st5" d="M171,8.9c-1.2-0.9-2.3,0.5-2,1.2c-0.6-0.5-2.3-0.1-2,1.3c0.3,1.6,3.4,1.3,3.6,1.3
					C170.7,12.5,172.2,9.9,171,8.9z"/>
			</g>
		</g>
	</g>
</g>
</svg>
